<?xml version="1.0" standalone="no"?><!DOCTYPE svg PUBLIC "-//W3C//DTD SVG 1.1//EN" "http://www.w3.org/Graphics/SVG/1.1/DTD/svg11.dtd"><svg t="1607043685387" class="icon" viewBox="0 0 1024 1024" version="1.1" xmlns="http://www.w3.org/2000/svg" p-id="977" xmlns:xlink="http://www.w3.org/1999/xlink" width="200" height="200"><defs><style type="text/css"></style></defs><path d="M613.7 846.6H311.3c-46.3 0-84-37.7-84-84V262.8c0-46.3 37.7-84 84-84h402.3c46.3 0 84 37.7 84 84v369.7c0 11-9 20-20 20s-20-9-20-20V262.8c0-24.3-19.7-44-44-44H311.3c-24.3 0-44 19.7-44 44v499.7c0 24.3 19.7 44 44 44h302.4c7.5 0 14.5-2.9 19.8-8.2l95.8-95.8h-31.7c-24.3 0-44 19.7-44 44v11.2c0 11-9 20-20 20s-20-9-20-20v-11.2c0-46.3 37.7-84 84-84h51c13 0 24.6 7.8 29.6 19.8s2.2 25.7-6.9 34.9L661.8 826.6c-12.8 12.9-29.9 20-48.1 20z" p-id="978"></path><path d="M659.7 356.7H365.2c-11 0-20-9-20-20s9-20 20-20h294.5c11 0 20 9 20 20s-8.9 20-20 20zM659.7 512.7H365.2c-11 0-20-9-20-20s9-20 20-20h294.5c11 0 20 9 20 20s-8.9 20-20 20zM463.7 668.7h-98.5c-11 0-20-9-20-20s9-20 20-20h98.5c11 0 20 9 20 20s-9 20-20 20z" p-id="979"></path></svg>